<?xml version="1.0" encoding="utf-8"?>
<!-- Generator: Adobe Illustrator 13.0.2, SVG Export Plug-In . SVG Version: 6.00 Build 14948)  -->
<!DOCTYPE svg PUBLIC "-//W3C//DTD SVG 1.1//EN" "http://www.w3.org/Graphics/SVG/1.1/DTD/svg11.dtd">
<svg version="1.1" id="Layer_1" xmlns="http://www.w3.org/2000/svg" xmlns:xlink="http://www.w3.org/1999/xlink" x="0px" y="0px"
	 width="363px" height="114px" viewBox="0 0 363 114" enable-background="new 0 0 363 114" xml:space="preserve">
<g>
	<path d="M7.601,85.895V85.19h10.357v0.704c-0.122,0-0.214,0-0.337,0c-2.268,0-2.757,0.339-2.757,2.151v10.495
		c0,5.585,2.175,8.194,7.201,8.194c2.42,0,4.443-0.613,5.7-1.503c2.206-1.535,2.543-3.253,2.543-6.322v-8.595
		c0-3.008-0.675-4.329-3.248-4.421V85.19h7.416v0.704c-2.359,0.339-3.034,1.565-3.034,4.421v8.624c0,6.325-3.095,8.995-10.725,8.995
		c-3.77,0-6.436-0.83-8.213-2.67c-1.838-1.935-2.053-4.146-2.053-7.152V88.046C10.451,86.201,9.931,85.895,7.601,85.895z"/>
	<path d="M53.903,102.378c0,3.007,0.706,4.328,3.279,4.42v0.706h-7.445v-0.706c2.359-0.339,3.033-1.565,3.033-4.42V88.29
		c0-1.996-0.276-2.365-2.696-2.365c-0.124,0-0.215,0-0.337,0V85.19h8.457l14.158,15.929V90.315c0-3.008-0.705-4.329-3.279-4.421
		V85.19h7.446v0.704c-2.36,0.339-3.034,1.565-3.034,4.421v17.619h-1.287L53.903,87.368V102.378z"/>
	<path d="M103.026,85.895c-0.123,0-0.215,0-0.337,0c-2.268,0-2.789,0.339-2.789,2.151v16.604c0,1.81,0.521,2.148,2.789,2.148
		c0.122,0,0.214,0,0.337,0v0.706H92.362v-0.706c0.123,0,0.215,0,0.338,0c2.268,0,2.789-0.339,2.789-2.148V88.046
		c0-1.845-0.491-2.151-2.82-2.151V85.19h10.358V85.895z"/>
	<path d="M138.788,87.4c0-0.83-0.889-1.443-2.482-1.506V85.19h7.079v0.704c-2.575,0.461-3.187,1.782-4.138,3.807l-8.519,18.233
		h-0.797l-8.365-17.805c-1.288-2.729-1.992-4.235-4.076-4.235c-0.123,0-0.246,0-0.368,0V85.19h10.694v0.704
		c-1.777,0.154-2.635,0.399-2.635,0.982c0,0.398,0.246,1.137,0.736,2.211l6.159,13.351l6.16-13.046
		C138.542,88.749,138.788,88.166,138.788,87.4z"/>
	<path d="M157.265,106.798c2.329,0,2.85-0.307,2.85-2.148V88.046c0-1.845-0.521-2.151-2.85-2.151V85.19h18.234l2.45,5.954h-0.672
		c-1.564-1.812-2.79-3.039-3.679-3.685c-0.766-0.553-1.532-1.012-2.39-1.289c-0.582-0.185-1.532-0.276-2.879-0.276h-2.667
		c-1.073,0-1.165,0.154-1.165,0.8c0,0.183,0,0.397,0,0.644v8.257h2.083c3.677,0,5.638-1.321,6.221-4.45h0.644v10.312h-0.644
		c-0.246-3.436-2.268-5.063-6.221-5.063h-2.083v8.194c0,2.089,0,2.211,2.083,2.211h2.298c4.078,0,6.496-1.689,8.858-5.863
		l0.674,0.061l-1.777,6.509h-19.368V106.798z"/>
	<path d="M194.467,106.798c0.123,0,0.216,0,0.336,0c2.27,0,2.79-0.339,2.79-2.148V88.046c0-1.845-0.521-2.151-2.851-2.151V85.19
		h10.173c6.16,0,9.654,2.454,9.654,6.074c0,2.734-1.778,4.36-5.331,4.976c1.563,0.981,2.205,2.239,2.879,3.436l1.717,3.101
		c1.379,2.548,2.085,3.991,4.259,3.991c0.123,0,0.246-0.032,0.4-0.032v0.769h-7.172l-3.218-6.445
		c-1.5-2.979-2.298-4.481-4.904-4.481h-1.225v8.072c0,1.81,0.522,2.148,2.788,2.148c0.125,0,0.215,0,0.337,0v0.706h-10.633V106.798z
		 M201.975,95.625h1.992c4.014,0,6.067-1.75,6.067-4.974c0-2.883-2.084-4.727-5.7-4.727c-1.99,0-2.359,0.276-2.359,2.21V95.625z"/>
	<path d="M235.283,99.893c1.87,4.911,4.107,7.212,7.723,7.212c2.791,0,4.505-1.565,4.505-3.929c0-2.546-2.023-3.712-6.005-5.188
		c-4.567-1.688-6.865-3.468-6.865-6.968c0-3.683,2.605-6.106,6.896-6.106c3.248,0,4.994,1.043,5.486,1.043
		c0.427,0,1.01-0.339,1.775-0.982h0.552v7.521h-0.613c-1.593-4.482-4.137-6.785-7.292-6.785c-2.205,0-3.74,1.381-3.74,3.131
		c0,2.303,1.932,3.253,5.362,4.544c2.301,0.857,4.077,1.563,5.18,2.453c1.869,1.506,2.759,3.163,2.759,5.404
		c0,4.113-3.095,6.691-8.488,6.691c-3.188,0-4.995-1.075-5.518-1.075c-0.429,0-1.011,0.337-1.776,0.982h-0.55v-7.949H235.283z"/>
	<path d="M278.646,85.895c-0.124,0-0.216,0-0.336,0c-2.27,0-2.791,0.339-2.791,2.151v16.604c0,1.81,0.521,2.148,2.791,2.148
		c0.12,0,0.212,0,0.336,0v0.706h-10.664v-0.706c0.122,0,0.214,0,0.337,0c2.268,0,2.789-0.339,2.789-2.148V88.046
		c0-1.845-0.491-2.151-2.818-2.151V85.19h10.356V85.895z"/>
	<path d="M313.733,85.19c0.458,0,0.857-0.031,1.255-0.431h1.135l1.255,6.477l-0.52,0.213c-2.055-3.713-4.475-5.555-7.231-5.555
		c-1.624,0-1.656,0.432-1.656,2.026v16.698c0,1.84,0.553,2.179,2.759,2.179c0.123,0,0.215,0,0.337,0v0.706h-10.635v-0.706
		c0.124,0,0.216,0,0.338,0c2.207,0,2.788-0.339,2.788-2.179V87.921c0-1.595-0.061-2.026-1.685-2.026
		c-2.757,0-5.146,1.842-7.201,5.555l-0.552-0.213l1.287-6.477h1.103c0.397,0.399,0.799,0.431,1.287,0.431c0.093,0,0.152,0,0.216,0
		h15.505C313.579,85.19,313.641,85.19,313.733,85.19z"/>
	<path d="M350.137,106.798c0.122,0,0.215,0,0.339,0v0.706H339.81v-0.706c0.124,0,0.215,0,0.337,0c2.269,0,2.79-0.339,2.79-2.148
		V97.19l-6.957-9.73c-0.828-1.166-1.471-1.596-3.063-1.596c-0.216,0-0.461,0.03-0.705,0.03V85.19h11.584v0.704
		c-1.686,0-2.544,0.307-2.544,0.893c0,0.521,0.337,0.981,0.828,1.623l4.933,6.755l5.118-6.601c0.52-0.675,0.828-1.196,0.828-1.596
		c0-0.551-0.736-0.951-2.209-1.074V85.19h7.171v0.704c-2.665,0.185-3.646,1.536-4.994,3.285l-5.578,7.244v8.226
		C347.348,106.459,347.869,106.798,350.137,106.798z"/>
</g>
<g>
	<path d="M29.494,7.886l-1.312,0.177c-3.185,0.265-4.309,1.061-4.309,4.595v48.869c0,3.533,1.124,4.329,4.309,4.595l1.312,0.087
		v2.564H7.945v-2.564l1.312-0.087c3.186-0.266,4.31-1.062,4.31-4.595V12.658c0-3.534-1.124-4.33-4.31-4.595L7.945,7.886V5.766
		h21.549V7.886z"/>
	<path d="M46.484,70.099c-6.247,0-10.743-6.981-10.743-18.293c0-13.254,6.308-22.269,13.866-22.269c1.873,0,3.747,0.973,5.746,2.828
		V14.072c0-1.591,0-1.944-1.124-2.475l-2.498-1.237V8.505c3.435-0.53,6.995-1.944,11.054-3.977h1.062v55.938
		c0,1.502,0,1.945,1.062,2.474l2.249,1.237v1.857c-3.123,0.441-6.621,1.768-10.743,3.977H55.54l-0.187-5.126
		C52.542,68.332,49.669,70.099,46.484,70.099z M55.353,41.114c-0.437-5.303-2.811-8.75-5.559-8.75c-3.56,0-5.435,4.596-5.435,13.608
		c0,11.841,2.25,18.027,6.435,18.027c1.686,0,3.435-1.06,4.559-2.826V41.114z"/>
	<path d="M79.587,70.011c-3.435,0-6.058-3.358-6.058-8.131c0-5.833,3.747-9.191,11.18-13.432l4.997-2.915v-7.955
		c0-3.358-0.937-5.036-2.81-5.036c-2.811,0-5.685,2.385-5.685,5.566c0,1.062,0.312,2.388,0.312,3.978
		c0,3.976-1.811,6.893-4.372,6.893c-2.311,0-3.686-1.857-3.686-5.037c0-2.651,1.312-5.39,3.873-8.13
		c3.873-4.153,7.933-6.186,12.305-6.186c7.12,0,8.246,3.799,8.246,12.46v19.883c0,2.032,0.187,3.005,1.249,3.005
		c0.937,0,1.936-0.619,3.06-1.856l0.563,2.032c-2.561,2.918-5.247,4.418-7.871,4.418c-3.185,0-4.809-1.855-4.933-5.654
		C85.647,67.713,82.398,70.011,79.587,70.011z M89.706,48.448l-2.873,1.59c-3.998,2.211-6.121,5.303-6.121,8.75
		c0,3.003,1.311,4.86,3.248,4.86c1.811,0,3.747-0.972,5.746-3.092V48.448z"/>
	<path d="M106.508,66.123l1.063-0.088c1.748-0.178,2.249-1.237,2.249-3.888V14.072c0-1.502,0-1.944-1.062-2.475l-2.25-1.237V8.505
		c3.561-0.441,7.059-2.032,10.744-3.977h1.062v31.459c3.185-4.153,6.434-6.186,9.806-6.186c3.123,0,5.872,1.679,7.309,4.153
		c1.311,2.209,1.436,4.685,1.436,7.866c0,0.708,0,1.503,0,2.298v18.027c0,2.651,0.5,3.71,2.25,3.888l1.061,0.088v2.651h-15.427
		v-2.651l1.124-0.088c1.749-0.178,2.249-1.237,2.249-3.888V41.997c0-4.33-0.812-6.186-3.997-6.186c-2.312,0-4.435,1.415-5.809,3.711
		v22.624c0,2.651,0.437,3.71,2.186,3.888l1.124,0.088v2.651h-15.116V66.123z"/>
	<path d="M161.848,29.537c9.245,0,15.68,8.395,15.68,20.237c0,11.842-6.435,20.237-15.68,20.237c-9.181,0-15.74-8.308-15.74-20.237
		C146.108,37.932,152.604,29.537,161.848,29.537z M168.282,49.774c0-11.134-2.438-16.967-6.435-16.967
		c-4.122,0-6.433,5.744-6.433,16.967c0,11.135,2.436,16.968,6.433,16.968C165.971,66.742,168.282,60.997,168.282,49.774z"/>
	<path d="M208.504,46.594h1.688c4.372,13.698,9.492,20.589,14.802,20.589c3.998,0,6.685-3.888,6.685-9.985
		c0-9.016-3.999-10.959-11.242-14.582c-8.496-4.241-12.869-9.191-12.869-18.734c0-11.577,5.809-19.265,14.367-19.265
		c6.182,0,10.056,4.507,11.68,4.507c0.687,0,1.186-0.708,1.811-2.209h1l0.312,19.529h-1.248
		c-2.874-12.637-7.996-19.264-13.554-19.264c-3.935,0-6.435,3.358-6.435,8.307c0,7.158,3.313,9.632,9.308,12.46
		c5.059,2.386,9.119,3.977,11.867,8.395c2.249,3.624,3.436,8.132,3.436,13.078c0,11.489-6.81,20.768-15.678,20.768
		c-7.309,0-11.869-4.95-13.492-4.95c-0.624,0-1.248,0.619-1.873,1.856h-1.188L208.504,46.594z"/>
	<path d="M247.229,34.839V33.16c3.625-4.064,6.873-8.748,9.809-13.785l1.06,0.884v10.427h8.685l-1.25,4.153h-7.435v24.038
		c0,5.037,0.376,7.333,3.125,7.333c1.873,0,3.81-1.149,5.122-3.181L267.341,64c-2.06,3.89-5.557,6.099-9.743,6.099
		c-2.935,0-5.121-1.237-6.309-3.181c-1.248-2.122-1.31-5.215-1.31-9.545c0-0.439,0-0.794,0-1.236V34.839H247.229z"/>
	<path d="M278.15,70.011c-3.437,0-6.061-3.358-6.061-8.131c0-5.833,3.747-9.191,11.18-13.432l4.996-2.915v-7.955
		c0-3.358-0.936-5.036-2.81-5.036c-2.811,0-5.684,2.385-5.684,5.566c0,1.062,0.313,2.388,0.313,3.978
		c0,3.976-1.812,6.893-4.372,6.893c-2.312,0-3.688-1.857-3.688-5.037c0-2.651,1.313-5.39,3.872-8.13
		c3.875-4.153,7.935-6.186,12.309-6.186c7.118,0,8.243,3.799,8.243,12.46v19.883c0,2.032,0.186,3.005,1.249,3.005
		c0.937,0,1.937-0.619,3.06-1.856l0.563,2.032c-2.562,2.918-5.246,4.418-7.87,4.418c-3.185,0-4.809-1.855-4.933-5.654
		C284.206,67.713,280.958,70.011,278.15,70.011z M288.266,48.448l-2.871,1.59c-3.999,2.211-6.123,5.303-6.123,8.75
		c0,3.003,1.313,4.86,3.249,4.86c1.81,0,3.745-0.972,5.745-3.092V48.448z"/>
	<path d="M305.194,34.839V33.16c3.62-4.064,6.869-8.748,9.805-13.785l1.062,0.884v10.427h8.683l-1.248,4.153h-7.435v24.038
		c0,5.037,0.376,7.333,3.123,7.333c1.875,0,3.812-1.149,5.123-3.181l1,0.972c-2.064,3.89-5.561,6.099-9.745,6.099
		c-2.936,0-5.123-1.237-6.308-3.181c-1.249-2.122-1.311-5.215-1.311-9.545c0-0.439,0-0.794,0-1.236V34.839H305.194z"/>
	<path d="M338.671,48.271c0,8.573,3.624,13.787,9.181,13.787c3.688,0,6.624-2.564,9.933-7.599l0.938,1.588
		c-2.998,9.28-7.746,13.964-14.054,13.964c-8.558,0-14.679-8.396-14.679-20.326c0-11.134,6.496-20.149,15.054-20.149
		c7.557,0,12.679,6.805,13.178,17.497h-19.55C338.671,47.477,338.671,47.918,338.671,48.271z M349.539,44.03
		c0-0.531,0.063-1.061,0.063-1.502c0-6.629-1.999-10.34-5.123-10.34c-3.622,0-5.809,4.153-5.87,11.842H349.539z"/>
</g>
<line fill="none" stroke="#000000" stroke-width="1.8155" x1="6.946" y1="76.67" x2="358.609" y2="76.67"/>
</svg>
